<mxfile host="Electron" modified="2023-04-27T09:44:55.832Z" agent="Mozilla/5.0 (Windows NT 10.0; Win64; x64) AppleWebKit/537.36 (KHTML, like Gecko) draw.io/21.2.1 Chrome/112.0.5615.87 Electron/24.1.2 Safari/537.36" etag="UHKYgbairb9eut_5pBjN" version="21.2.1" type="device" pages="3">
  <diagram name="Page-1" id="tqMP6LUTBTMePXm0T18Q">
    <mxGraphModel dx="1728" dy="2903" grid="1" gridSize="10" guides="1" tooltips="1" connect="1" arrows="1" fold="1" page="1" pageScale="1" pageWidth="850" pageHeight="1100" math="0" shadow="0">
      <root>
        <mxCell id="0" />
        <mxCell id="1" parent="0" />
        <mxCell id="tJGZe25Awh_DduKygmRr-1" value="Территория" style="rounded=0;whiteSpace=wrap;html=1;" vertex="1" parent="1">
          <mxGeometry x="80" y="-1040" width="120" height="80" as="geometry" />
        </mxCell>
        <mxCell id="tJGZe25Awh_DduKygmRr-2" value="Объект территории" style="rounded=0;whiteSpace=wrap;html=1;" vertex="1" parent="1">
          <mxGeometry x="320" y="-1040" width="120" height="80" as="geometry" />
        </mxCell>
        <mxCell id="tJGZe25Awh_DduKygmRr-3" value="Работа объекта" style="rounded=0;whiteSpace=wrap;html=1;" vertex="1" parent="1">
          <mxGeometry x="560" y="-1040" width="120" height="80" as="geometry" />
        </mxCell>
        <mxCell id="tJGZe25Awh_DduKygmRr-4" value="" style="edgeStyle=entityRelationEdgeStyle;fontSize=12;html=1;endArrow=ERmany;rounded=0;exitX=1;exitY=0.5;exitDx=0;exitDy=0;entryX=0;entryY=0.5;entryDx=0;entryDy=0;" edge="1" parent="1" source="tJGZe25Awh_DduKygmRr-1" target="tJGZe25Awh_DduKygmRr-2">
          <mxGeometry width="100" height="100" relative="1" as="geometry">
            <mxPoint x="560" y="-790" as="sourcePoint" />
            <mxPoint x="660" y="-890" as="targetPoint" />
          </mxGeometry>
        </mxCell>
        <mxCell id="tJGZe25Awh_DduKygmRr-5" value="" style="edgeStyle=entityRelationEdgeStyle;fontSize=12;html=1;endArrow=ERmany;rounded=0;exitX=1;exitY=0.5;exitDx=0;exitDy=0;entryX=0;entryY=0.5;entryDx=0;entryDy=0;" edge="1" parent="1" source="tJGZe25Awh_DduKygmRr-2" target="tJGZe25Awh_DduKygmRr-3">
          <mxGeometry width="100" height="100" relative="1" as="geometry">
            <mxPoint x="440" y="-930" as="sourcePoint" />
            <mxPoint x="560" y="-930" as="targetPoint" />
          </mxGeometry>
        </mxCell>
        <mxCell id="tJGZe25Awh_DduKygmRr-6" value="Работа объекта:&lt;br&gt;&lt;br&gt;- исходные материалы" style="text;html=1;strokeColor=none;fillColor=none;align=left;verticalAlign=top;whiteSpace=wrap;rounded=0;labelBackgroundColor=none;" vertex="1" parent="1">
          <mxGeometry x="800" y="-1160" width="320" height="80" as="geometry" />
        </mxCell>
        <mxCell id="tJGZe25Awh_DduKygmRr-7" value="Слово" style="rounded=0;whiteSpace=wrap;html=1;" vertex="1" parent="1">
          <mxGeometry x="760" y="-840" width="120" height="80" as="geometry" />
        </mxCell>
        <mxCell id="tJGZe25Awh_DduKygmRr-9" value="" style="edgeStyle=entityRelationEdgeStyle;fontSize=12;html=1;endArrow=ERmany;rounded=0;exitX=1;exitY=0.5;exitDx=0;exitDy=0;entryX=0;entryY=0.5;entryDx=0;entryDy=0;" edge="1" parent="1" source="tJGZe25Awh_DduKygmRr-7" target="tJGZe25Awh_DduKygmRr-12">
          <mxGeometry width="100" height="100" relative="1" as="geometry">
            <mxPoint x="930" y="-870" as="sourcePoint" />
            <mxPoint x="1000" y="-800" as="targetPoint" />
          </mxGeometry>
        </mxCell>
        <mxCell id="tJGZe25Awh_DduKygmRr-10" value="Объект - вопрос&lt;br&gt;(LQuestion)" style="rounded=0;whiteSpace=wrap;html=1;" vertex="1" parent="1">
          <mxGeometry x="960" y="-640" width="200" height="40" as="geometry" />
        </mxCell>
        <mxCell id="tJGZe25Awh_DduKygmRr-12" value="Мысль" style="rounded=0;whiteSpace=wrap;html=1;" vertex="1" parent="1">
          <mxGeometry x="1040" y="-840" width="120" height="80" as="geometry" />
        </mxCell>
        <mxCell id="tJGZe25Awh_DduKygmRr-13" value="Предложение на русском на Х языке" style="rounded=0;whiteSpace=wrap;html=1;" vertex="1" parent="1">
          <mxGeometry x="1280" y="-800" width="120" height="60" as="geometry" />
        </mxCell>
        <mxCell id="tJGZe25Awh_DduKygmRr-18" value="" style="edgeStyle=entityRelationEdgeStyle;fontSize=12;html=1;endArrow=ERmany;rounded=0;exitX=1;exitY=0.5;exitDx=0;exitDy=0;entryX=0;entryY=0.5;entryDx=0;entryDy=0;" edge="1" parent="1" source="tJGZe25Awh_DduKygmRr-12" target="tJGZe25Awh_DduKygmRr-13">
          <mxGeometry width="100" height="100" relative="1" as="geometry">
            <mxPoint x="1120" y="-590" as="sourcePoint" />
            <mxPoint x="1260" y="-730" as="targetPoint" />
          </mxGeometry>
        </mxCell>
        <mxCell id="tJGZe25Awh_DduKygmRr-20" value="+ логика генерации вопроса&lt;br&gt;++ коллекция мыслей&lt;br&gt;++ по выбору, извлечение на Х языке&lt;br&gt;++ ответ дать на др" style="rounded=0;whiteSpace=wrap;html=1;verticalAlign=top;align=left;" vertex="1" parent="1">
          <mxGeometry x="960" y="-600" width="200" height="160" as="geometry" />
        </mxCell>
        <mxCell id="tJGZe25Awh_DduKygmRr-25" value="LQuestions" style="shape=table;startSize=30;container=1;collapsible=1;childLayout=tableLayout;fixedRows=1;rowLines=0;fontStyle=1;align=center;resizeLast=1;html=1;" vertex="1" parent="1">
          <mxGeometry x="360" y="-640" width="200" height="90" as="geometry">
            <mxRectangle x="160" y="-840" width="70" height="30" as="alternateBounds" />
          </mxGeometry>
        </mxCell>
        <mxCell id="tJGZe25Awh_DduKygmRr-26" value="" style="shape=tableRow;horizontal=0;startSize=0;swimlaneHead=0;swimlaneBody=0;fillColor=none;collapsible=0;dropTarget=0;points=[[0,0.5],[1,0.5]];portConstraint=eastwest;top=0;left=0;right=0;bottom=1;" vertex="1" parent="tJGZe25Awh_DduKygmRr-25">
          <mxGeometry y="30" width="200" height="30" as="geometry" />
        </mxCell>
        <mxCell id="tJGZe25Awh_DduKygmRr-27" value="PK" style="shape=partialRectangle;connectable=0;fillColor=none;top=0;left=0;bottom=0;right=0;fontStyle=1;overflow=hidden;whiteSpace=wrap;html=1;" vertex="1" parent="tJGZe25Awh_DduKygmRr-26">
          <mxGeometry width="30" height="30" as="geometry">
            <mxRectangle width="30" height="30" as="alternateBounds" />
          </mxGeometry>
        </mxCell>
        <mxCell id="tJGZe25Awh_DduKygmRr-28" value="id" style="shape=partialRectangle;connectable=0;fillColor=none;top=0;left=0;bottom=0;right=0;align=left;spacingLeft=6;fontStyle=5;overflow=hidden;whiteSpace=wrap;html=1;" vertex="1" parent="tJGZe25Awh_DduKygmRr-26">
          <mxGeometry x="30" width="170" height="30" as="geometry">
            <mxRectangle width="170" height="30" as="alternateBounds" />
          </mxGeometry>
        </mxCell>
        <mxCell id="tJGZe25Awh_DduKygmRr-29" value="" style="shape=tableRow;horizontal=0;startSize=0;swimlaneHead=0;swimlaneBody=0;fillColor=none;collapsible=0;dropTarget=0;points=[[0,0.5],[1,0.5]];portConstraint=eastwest;top=0;left=0;right=0;bottom=0;" vertex="1" parent="tJGZe25Awh_DduKygmRr-25">
          <mxGeometry y="60" width="200" height="30" as="geometry" />
        </mxCell>
        <mxCell id="tJGZe25Awh_DduKygmRr-30" value="" style="shape=partialRectangle;connectable=0;fillColor=none;top=0;left=0;bottom=0;right=0;editable=1;overflow=hidden;whiteSpace=wrap;html=1;" vertex="1" parent="tJGZe25Awh_DduKygmRr-29">
          <mxGeometry width="30" height="30" as="geometry">
            <mxRectangle width="30" height="30" as="alternateBounds" />
          </mxGeometry>
        </mxCell>
        <mxCell id="tJGZe25Awh_DduKygmRr-31" value="name" style="shape=partialRectangle;connectable=0;fillColor=none;top=0;left=0;bottom=0;right=0;align=left;spacingLeft=6;overflow=hidden;whiteSpace=wrap;html=1;" vertex="1" parent="tJGZe25Awh_DduKygmRr-29">
          <mxGeometry x="30" width="170" height="30" as="geometry">
            <mxRectangle width="170" height="30" as="alternateBounds" />
          </mxGeometry>
        </mxCell>
      </root>
    </mxGraphModel>
  </diagram>
  <diagram id="B-euCr4LAnl4oewoDh70" name="Page-2">
    <mxGraphModel dx="1728" dy="1803" grid="1" gridSize="10" guides="1" tooltips="1" connect="1" arrows="1" fold="1" page="1" pageScale="1" pageWidth="850" pageHeight="1100" math="0" shadow="0">
      <root>
        <mxCell id="0" />
        <mxCell id="1" parent="0" />
        <mxCell id="1rkgDQDjH3ymCpKgDI3y-1" value="Лексическая единица: слово или фраза" style="rounded=0;whiteSpace=wrap;html=1;" vertex="1" parent="1">
          <mxGeometry x="40" y="40" width="160" height="80" as="geometry" />
        </mxCell>
        <mxCell id="1rkgDQDjH3ymCpKgDI3y-2" value="Thought&lt;br&gt;(предложение)" style="rounded=0;whiteSpace=wrap;html=1;" vertex="1" parent="1">
          <mxGeometry x="360" y="40" width="160" height="80" as="geometry" />
        </mxCell>
        <mxCell id="1rkgDQDjH3ymCpKgDI3y-3" value="Объект &quot;Expression&quot;" style="rounded=0;whiteSpace=wrap;html=1;" vertex="1" parent="1">
          <mxGeometry x="600" y="40" width="160" height="80" as="geometry" />
        </mxCell>
        <mxCell id="1rkgDQDjH3ymCpKgDI3y-4" value="" style="edgeStyle=entityRelationEdgeStyle;fontSize=12;html=1;endArrow=ERmany;rounded=0;exitX=1;exitY=0.5;exitDx=0;exitDy=0;entryX=0;entryY=0.5;entryDx=0;entryDy=0;" edge="1" parent="1" source="1rkgDQDjH3ymCpKgDI3y-2" target="1rkgDQDjH3ymCpKgDI3y-3">
          <mxGeometry width="100" height="100" relative="1" as="geometry">
            <mxPoint x="370" y="80" as="sourcePoint" />
            <mxPoint x="470" y="-20" as="targetPoint" />
          </mxGeometry>
        </mxCell>
        <mxCell id="1rkgDQDjH3ymCpKgDI3y-5" value="text" style="ellipse;whiteSpace=wrap;html=1;" vertex="1" parent="1">
          <mxGeometry x="600" y="-30" width="80" height="40" as="geometry" />
        </mxCell>
        <mxCell id="1rkgDQDjH3ymCpKgDI3y-6" value="lng" style="ellipse;whiteSpace=wrap;html=1;" vertex="1" parent="1">
          <mxGeometry x="710" y="-30" width="80" height="40" as="geometry" />
        </mxCell>
        <mxCell id="1rkgDQDjH3ymCpKgDI3y-9" value="" style="edgeStyle=none;orthogonalLoop=1;jettySize=auto;html=1;rounded=0;endArrow=none;endFill=0;entryX=0.25;entryY=0;entryDx=0;entryDy=0;exitX=0.5;exitY=1;exitDx=0;exitDy=0;" edge="1" parent="1" source="1rkgDQDjH3ymCpKgDI3y-5" target="1rkgDQDjH3ymCpKgDI3y-3">
          <mxGeometry width="80" relative="1" as="geometry">
            <mxPoint x="420" y="30" as="sourcePoint" />
            <mxPoint x="500" y="30" as="targetPoint" />
            <Array as="points" />
          </mxGeometry>
        </mxCell>
        <mxCell id="1rkgDQDjH3ymCpKgDI3y-10" value="" style="edgeStyle=none;orthogonalLoop=1;jettySize=auto;html=1;rounded=0;endArrow=none;endFill=0;entryX=0.5;entryY=0;entryDx=0;entryDy=0;exitX=0;exitY=1;exitDx=0;exitDy=0;" edge="1" parent="1" source="1rkgDQDjH3ymCpKgDI3y-6" target="1rkgDQDjH3ymCpKgDI3y-3">
          <mxGeometry width="80" relative="1" as="geometry">
            <mxPoint x="650" y="20" as="sourcePoint" />
            <mxPoint x="650" y="50" as="targetPoint" />
            <Array as="points" />
          </mxGeometry>
        </mxCell>
      </root>
    </mxGraphModel>
  </diagram>
  <diagram id="YZq_QTnxF6v84EoJTJu0" name="Простой тест">
    <mxGraphModel dx="2924" dy="1944" grid="1" gridSize="10" guides="1" tooltips="1" connect="1" arrows="1" fold="1" page="1" pageScale="1" pageWidth="850" pageHeight="1100" math="0" shadow="0">
      <root>
        <mxCell id="0" />
        <mxCell id="1" parent="0" />
        <mxCell id="fRQmCS1DyyWhGl-wRQrd-1" value="Вопрос" style="rounded=0;whiteSpace=wrap;html=1;" vertex="1" parent="1">
          <mxGeometry x="120" y="40" width="240" height="40" as="geometry" />
        </mxCell>
        <mxCell id="fRQmCS1DyyWhGl-wRQrd-2" value="Ответы" style="rounded=0;whiteSpace=wrap;html=1;" vertex="1" parent="1">
          <mxGeometry x="480" y="40" width="240" height="40" as="geometry" />
        </mxCell>
        <mxCell id="fRQmCS1DyyWhGl-wRQrd-3" value="" style="edgeStyle=entityRelationEdgeStyle;fontSize=12;html=1;endArrow=ERmany;rounded=0;exitX=1;exitY=0.5;exitDx=0;exitDy=0;entryX=0;entryY=0.5;entryDx=0;entryDy=0;" edge="1" parent="1" source="fRQmCS1DyyWhGl-wRQrd-1" target="fRQmCS1DyyWhGl-wRQrd-2">
          <mxGeometry width="100" height="100" relative="1" as="geometry">
            <mxPoint x="370" y="180" as="sourcePoint" />
            <mxPoint x="470" y="80" as="targetPoint" />
          </mxGeometry>
        </mxCell>
        <mxCell id="fRQmCS1DyyWhGl-wRQrd-4" value="Вопросы" style="rounded=0;whiteSpace=wrap;html=1;" vertex="1" parent="1">
          <mxGeometry x="-240" y="40" width="240" height="40" as="geometry" />
        </mxCell>
        <mxCell id="fRQmCS1DyyWhGl-wRQrd-5" value="Очки" style="ellipse;whiteSpace=wrap;html=1;" vertex="1" parent="1">
          <mxGeometry x="-200" y="-40" width="80" height="40" as="geometry" />
        </mxCell>
        <mxCell id="fRQmCS1DyyWhGl-wRQrd-6" value="" style="edgeStyle=none;orthogonalLoop=1;jettySize=auto;html=1;rounded=0;endArrow=none;endFill=0;exitX=0.25;exitY=0;exitDx=0;exitDy=0;entryX=0.5;entryY=1;entryDx=0;entryDy=0;" edge="1" parent="1" source="fRQmCS1DyyWhGl-wRQrd-4" target="fRQmCS1DyyWhGl-wRQrd-5">
          <mxGeometry width="80" relative="1" as="geometry">
            <mxPoint x="410" y="180" as="sourcePoint" />
            <mxPoint x="490" y="180" as="targetPoint" />
            <Array as="points" />
          </mxGeometry>
        </mxCell>
        <mxCell id="fRQmCS1DyyWhGl-wRQrd-7" value="" style="edgeStyle=entityRelationEdgeStyle;fontSize=12;html=1;endArrow=ERmany;rounded=0;exitX=1;exitY=0.5;exitDx=0;exitDy=0;entryX=0;entryY=0.5;entryDx=0;entryDy=0;" edge="1" parent="1" source="fRQmCS1DyyWhGl-wRQrd-4" target="fRQmCS1DyyWhGl-wRQrd-1">
          <mxGeometry width="100" height="100" relative="1" as="geometry">
            <mxPoint x="360" y="230" as="sourcePoint" />
            <mxPoint x="460" y="130" as="targetPoint" />
          </mxGeometry>
        </mxCell>
      </root>
    </mxGraphModel>
  </diagram>
</mxfile>
